<?xml version="1.0" standalone="no"?>
<!DOCTYPE svg PUBLIC "-//W3C//DTD SVG 20010904//EN"
 "http://www.w3.org/TR/2001/REC-SVG-20010904/DTD/svg10.dtd">
<svg version="1.0" xmlns="http://www.w3.org/2000/svg"
 width="1200.000000pt" height="900.000000pt" viewBox="0 0 1200.000000 900.000000"
 preserveAspectRatio="xMidYMid meet">

<g transform="translate(0.000000,900.000000) scale(0.100000,-0.100000)"
fill="#000000" stroke="none">
<path d="M3444 6097 c-3 -8 -3 -301 -1 -653 l3 -639 26 -71 c53 -146 130 -226
267 -277 52 -20 80 -21 403 -25 l347 -3 6 -42 c3 -23 5 -80 3 -127 l-3 -85
-82 -3 -83 -3 0 -385 c0 -421 2 -439 57 -467 65 -33 159 -38 683 -35 l515 3 5
95 c3 52 3 176 0 275 l-5 180 -135 0 -135 0 -3 -153 -3 -154 -347 4 -347 3 -3
196 -2 196 300 8 c164 4 375 4 468 0 93 -4 178 -4 190 -1 21 7 22 13 22 120
l0 114 -31 6 c-17 3 -56 6 -85 6 l-54 0 0 114 c0 77 4 117 12 122 6 4 266 10
577 14 472 6 582 10 661 25 52 9 109 23 127 31 17 8 35 14 41 14 18 0 105 42
176 86 128 78 234 223 274 374 28 102 40 268 33 425 l-6 130 -510 0 -510 0 -3
-116 -3 -116 137 -6 c76 -4 244 -7 376 -7 l238 0 0 -52 c-1 -289 -138 -454
-430 -519 -75 -17 -2721 -25 -2761 -9 -36 15 -94 78 -110 120 -10 27 -14 180
-19 665 -4 347 -8 631 -9 633 0 1 -60 2 -131 2 -100 0 -132 -3 -136 -13z
m1691 -1797 l0 -125 -35 -3 c-19 -2 -99 -1 -178 3 l-143 7 3 117 3 116 90 6
c50 3 128 5 175 5 l85 -1 0 -125z"/>
<path d="M7695 6068 c-11 -74 1 -1086 13 -1180 35 -266 165 -416 387 -448 44
-6 494 -10 1197 -10 l1126 0 7 31 c10 43 -5 202 -19 211 -6 4 -504 8 -1107 8
-698 0 -1116 4 -1150 10 -56 11 -95 39 -129 95 -28 46 -40 146 -40 328 l0 167
158 0 c86 0 167 3 180 6 21 6 22 11 22 120 0 62 -4 115 -9 118 -5 3 -86 9
-180 12 l-171 7 0 201 c0 111 -3 238 -7 284 l-6 82 -133 0 -133 0 -6 -42z"/>
<path d="M2998 5773 l-3 -328 -161 -3 c-189 -3 -174 9 -174 -137 0 -58 4 -95
12 -103 8 -8 59 -12 165 -12 84 0 154 -1 155 -2 1 -2 4 -172 7 -378 l6 -375
130 0 130 0 3 810 c1 446 0 820 -3 833 -5 21 -9 22 -135 22 l-130 0 -2 -327z"/>
<path d="M4364 5987 c-2 -7 -3 -60 -2 -118 l3 -104 110 -6 c61 -4 260 -7 443
-8 l333 -1 -3 -82 -3 -83 -440 -5 c-242 -3 -441 -7 -443 -8 -2 -1 -2 -132 0
-290 4 -391 -9 -373 282 -382 105 -3 353 -3 551 0 l360 5 0 115 0 115 -443 6
c-243 4 -449 10 -458 13 -12 5 -14 22 -12 88 l3 83 439 3 c337 2 442 5 448 15
4 6 8 129 8 271 0 241 -1 263 -20 302 -41 83 -6 79 -613 82 -444 2 -538 0
-543 -11z"/>
<path d="M9244 5892 c-7 -4 -13 -68 -17 -167 -8 -202 -31 -276 -119 -376 -61
-70 -211 -135 -372 -163 -49 -8 -93 -21 -97 -28 -13 -20 -11 -202 2 -215 7 -7
21 -8 42 -2 18 5 58 9 89 9 81 0 237 43 337 92 92 45 194 132 226 192 11 20
23 36 26 36 4 0 17 -16 29 -35 33 -53 152 -148 237 -190 103 -50 280 -94 393
-98 l64 -2 8 45 c5 25 6 76 2 113 -7 75 -19 87 -88 87 -48 0 -183 38 -252 71
-117 55 -198 151 -230 273 -9 32 -14 105 -14 197 0 99 -4 149 -12 157 -13 13
-235 17 -254 4z"/>
<path d="M1815 5828 c-3 -7 -6 -96 -7 -198 l-3 -185 -260 -5 -260 -5 -3 -117
-3 -118 93 0 c51 0 102 -3 114 -6 21 -6 21 -6 -6 -57 -51 -95 -58 -205 -22
-332 l8 -30 133 -3 133 -3 -8 53 c-24 152 9 266 96 330 39 29 50 32 114 32 61
0 78 -4 117 -28 25 -16 59 -49 75 -75 27 -42 29 -53 29 -146 0 -90 -3 -104
-26 -143 -14 -23 -46 -57 -70 -75 l-43 -32 -371 -7 c-203 -3 -427 -7 -497 -7
l-128 -1 0 -121 0 -120 523 3 522 3 67 28 c159 68 278 206 294 344 3 27 10 57
16 69 22 47 -6 218 -47 278 l-24 35 107 3 107 3 0 120 0 120 -185 6 c-102 4
-215 7 -252 8 l-68 1 0 164 c0 90 -3 178 -6 195 l-6 31 -125 0 c-90 0 -125 -3
-128 -12z"/>
<path d="M2527 4233 c-4 -3 -7 -54 -7 -113 l0 -107 152 -6 c83 -4 274 -7 425
-7 l273 0 0 -95 0 -95 -213 0 c-118 0 -309 -3 -425 -7 l-212 -6 0 -305 c0
-291 1 -305 21 -333 40 -57 68 -59 639 -57 l515 3 0 120 0 120 -452 3 -453 2
0 100 0 100 93 1 c50 1 245 5 432 8 l340 6 3 283 c3 313 2 318 -61 366 l-34
26 -515 0 c-283 0 -518 -3 -521 -7z"/>
<path d="M8037 3800 c-34 -27 -43 -76 -23 -123 15 -36 14 -37 -15 -66 -85 -85
20 -200 146 -158 25 8 48 10 51 6 3 -5 26 -9 50 -9 l46 0 -26 31 c-24 29 -25
32 -11 59 8 16 15 43 15 60 0 28 -3 30 -35 30 -30 0 -35 -3 -35 -23 0 -37 -10
-38 -37 -6 l-25 29 31 35 c41 47 42 96 5 130 -35 32 -100 34 -137 5z m96 -62
c6 -19 -3 -37 -24 -48 -14 -8 -20 -6 -29 9 -5 11 -7 27 -4 35 7 19 50 21 57 4z
m-13 -222 c-44 -20 -91 29 -58 62 9 9 19 5 45 -20 33 -31 33 -33 13 -42z"/>
<path d="M7680 3755 c0 -28 -4 -35 -20 -35 -16 0 -20 -7 -20 -30 0 -23 4 -30
20 -30 18 0 20 -7 20 -81 0 -44 5 -89 10 -99 12 -22 82 -44 110 -35 30 9 28
63 -2 67 -21 3 -23 9 -26 76 -3 71 -3 72 23 72 21 0 25 5 25 30 0 25 -4 30
-25 30 -22 0 -25 4 -25 35 0 35 0 35 -45 35 -45 0 -45 0 -45 -35z"/>
<path d="M5797 3724 c-4 -4 -7 -67 -7 -141 l0 -133 45 0 45 0 0 93 c0 91 8
117 36 117 33 0 44 -31 44 -121 l0 -89 40 0 39 0 3 96 c2 79 6 99 21 108 12 8
22 8 35 0 14 -9 18 -29 20 -108 l3 -96 46 0 46 0 -5 109 c-5 126 -18 156 -72
166 -35 7 -96 -16 -96 -36 0 -6 -14 1 -31 15 -39 33 -69 33 -108 1 l-30 -26
-3 23 c-2 17 -10 24 -33 26 -17 2 -34 0 -38 -4z"/>
<path d="M6320 3712 c-65 -32 -90 -130 -51 -202 24 -45 92 -76 144 -66 134 25
155 220 31 272 -45 19 -82 18 -124 -4z m104 -74 c34 -48 9 -128 -39 -128 -29
0 -45 26 -45 75 0 20 5 45 10 56 14 26 55 24 74 -3z"/>
<path d="M6681 3704 c-30 -25 -31 -25 -31 -5 0 18 -6 21 -40 21 l-40 0 0 -135
0 -135 45 0 45 0 0 93 c0 91 8 117 36 117 33 0 44 -31 44 -121 l0 -89 40 0 39
0 3 96 c2 79 6 99 21 108 12 8 22 8 35 0 14 -9 18 -29 20 -108 l3 -96 39 0 40
0 0 113 c0 128 -10 152 -64 162 -35 7 -96 -16 -96 -36 0 -6 -14 1 -31 15 -17
14 -41 26 -54 26 -13 0 -37 -12 -54 -26z"/>
<path d="M7100 3712 c-83 -41 -95 -194 -18 -244 66 -43 173 -25 203 33 l16 29
-45 0 c-25 0 -48 -4 -51 -10 -12 -19 -63 -11 -79 12 -8 12 -13 25 -10 30 3 4
46 8 96 8 l91 0 -7 41 c-9 54 -33 89 -73 105 -44 19 -81 18 -123 -4z m89 -52
c10 -5 21 -16 25 -25 4 -12 -4 -15 -49 -15 -45 0 -53 3 -48 16 3 9 15 20 27
24 28 11 25 11 45 0z"/>
<path d="M7451 3704 c-30 -25 -31 -25 -31 -5 0 18 -6 21 -40 21 l-40 0 0 -135
0 -135 45 0 45 0 0 89 c0 68 4 93 16 105 18 19 28 20 55 6 17 -9 19 -22 19
-105 l0 -95 45 0 45 0 0 94 c0 110 -12 151 -51 171 -41 22 -73 18 -108 -11z"/>
<path d="M8565 3718 c-11 -6 -25 -19 -32 -27 -11 -14 -12 -13 -13 7 0 19 -5
22 -40 22 l-40 0 0 -135 0 -135 45 0 45 0 0 94 c0 100 10 124 48 111 26 -7 32
-33 32 -127 l0 -78 40 0 40 0 0 93 c0 91 8 117 36 117 33 0 44 -31 44 -121 l0
-89 40 0 40 0 0 109 c0 60 -3 117 -6 126 -18 45 -121 56 -146 15 -11 -18 -13
-18 -41 6 -31 26 -61 30 -92 12z"/>
<path d="M8973 3715 c-71 -31 -98 -145 -50 -216 27 -40 90 -64 142 -55 38 8
95 50 95 72 0 16 -75 20 -85 4 -12 -19 -73 -12 -85 10 -6 11 -8 25 -5 30 3 6
46 10 96 10 86 0 89 1 89 23 0 12 -9 40 -19 63 -30 66 -106 91 -178 59z m86
-55 c10 -5 21 -16 25 -25 4 -12 -4 -15 -49 -15 -45 0 -53 3 -48 16 3 9 15 20
27 24 28 11 25 11 45 0z"/>
<path d="M9321 3704 c-30 -25 -31 -25 -31 -5 0 18 -6 21 -40 21 l-40 0 0 -135
0 -135 45 0 45 0 0 93 c0 91 8 117 36 117 33 0 44 -31 44 -121 l0 -89 40 0 39
0 3 96 c2 79 6 99 21 108 12 8 22 8 35 0 14 -9 18 -29 20 -108 l3 -96 39 0 40
0 0 113 c0 128 -10 152 -64 162 -35 7 -96 -16 -96 -36 0 -6 -14 1 -31 15 -17
14 -41 26 -54 26 -13 0 -37 -12 -54 -26z"/>
<path d="M9740 3712 c-65 -32 -90 -130 -51 -202 24 -45 92 -76 144 -66 134 25
155 220 31 272 -45 19 -82 18 -124 -4z m104 -74 c34 -48 9 -128 -39 -128 -29
0 -45 26 -45 75 0 20 5 45 10 56 14 26 55 24 74 -3z"/>
<path d="M10095 3704 c-24 -26 -25 -26 -25 -5 0 18 -6 21 -40 21 l-40 0 0
-135 0 -135 45 0 45 0 0 88 c0 99 7 112 58 112 32 0 33 1 30 38 -4 49 -36 56
-73 16z"/>
<path d="M10230 3579 c54 -151 54 -169 3 -169 -21 0 -24 -4 -21 -32 2 -21 9
-34 20 -36 31 -6 98 19 113 41 7 12 38 93 68 180 l55 158 -46 -3 -46 -3 -25
-93 c-13 -51 -26 -90 -29 -88 -2 3 -14 44 -26 93 l-22 88 -47 3 -47 3 50 -142z"/>
</g>
</svg>
